TITLE ""
FILE "DISC2Track21.mp3" MP3
  TRACK 01 AUDIO
    TITLE "DISC2Track21_01"
    INDEX 01 00:00:00
  TRACK 02 AUDIO
    TITLE "DISC2Track21_02"
    INDEX 01 00:05:27
  TRACK 03 AUDIO
    TITLE "DISC2Track21_03"
    INDEX 01 00:05:49
  TRACK 04 AUDIO
    TITLE "DISC2Track21_04"
    INDEX 01 00:09:07
  TRACK 05 AUDIO
    TITLE "DISC2Track21_05"
    INDEX 01 00:12:53
  TRACK 06 AUDIO
    TITLE "DISC2Track21_06"
    INDEX 01 00:16:15
  TRACK 07 AUDIO
    TITLE "DISC2Track21_07"
    INDEX 01 00:16:41
  TRACK 08 AUDIO
    TITLE "DISC2Track21_08"
    INDEX 01 00:19:10
  TRACK 09 AUDIO
    TITLE "DISC2Track21_09"
    INDEX 01 00:22:26
  TRACK 10 AUDIO
    TITLE "DISC2Track21_10"
    INDEX 01 00:25:36
  TRACK 11 AUDIO
    TITLE "DISC2Track21_11"
    INDEX 01 00:25:57
  TRACK 12 AUDIO
    TITLE "DISC2Track21_12"
    INDEX 01 00:29:08
  TRACK 13 AUDIO
    TITLE "DISC2Track21_13"
    INDEX 01 00:32:30
  TRACK 14 AUDIO
    TITLE "DISC2Track21_14"
    INDEX 01 00:35:42
  TRACK 15 AUDIO
    TITLE "DISC2Track21_15"
    INDEX 01 00:35:65
  TRACK 16 AUDIO
    TITLE "DISC2Track21_16"
    INDEX 01 00:39:06
  TRACK 17 AUDIO
    TITLE "DISC2Track21_17"
    INDEX 01 00:42:46
  TRACK 18 AUDIO
    TITLE "DISC2Track21_18"
    INDEX 01 00:46:03
  TRACK 19 AUDIO
    TITLE "DISC2Track21_19"
    INDEX 01 00:46:26
  TRACK 20 AUDIO
    TITLE "DISC2Track21_20"
    INDEX 01 00:49:21
  TRACK 21 AUDIO
    TITLE "DISC2Track21_21"
    INDEX 01 00:52:36
  TRACK 22 AUDIO
    TITLE "DISC2Track21_22"
    INDEX 01 00:55:45
  TRACK 23 AUDIO
    TITLE "DISC2Track21_23"
    INDEX 01 00:55:68
  TRACK 24 AUDIO
    TITLE "DISC2Track21_24"
    INDEX 01 00:58:63
  TRACK 25 AUDIO
    TITLE "DISC2Track21_25"
    INDEX 01 01:01:63
  TRACK 26 AUDIO
    TITLE "DISC2Track21_26"
    INDEX 01 01:04:55
  TRACK 27 AUDIO
    TITLE "DISC2Track21_27"
    INDEX 01 01:05:06
  TRACK 28 AUDIO
    TITLE "DISC2Track21_28"
    INDEX 01 01:07:69
  TRACK 29 AUDIO
    TITLE "DISC2Track21_29"
    INDEX 01 01:11:03
  TRACK 30 AUDIO
    TITLE "DISC2Track21_30"
    INDEX 01 01:14:09
  TRACK 31 AUDIO
    TITLE "DISC2Track21_31"
    INDEX 01 01:14:40
  TRACK 32 AUDIO
    TITLE "DISC2Track21_32"
    INDEX 01 01:19:12
  TRACK 33 AUDIO
    TITLE "DISC2Track21_33"
    INDEX 01 01:23:43
  TRACK 34 AUDIO
    TITLE "DISC2Track21_34"
    INDEX 01 01:28:03
  TRACK 35 AUDIO
    TITLE "DISC2Track21_35"
    INDEX 01 01:28:24
  TRACK 36 AUDIO
    TITLE "DISC2Track21_36"
    INDEX 01 01:32:69
  TRACK 37 AUDIO
    TITLE "DISC2Track21_37"
    INDEX 01 01:36:67
  TRACK 38 AUDIO
    TITLE "DISC2Track21_38"
    INDEX 01 01:40:63
  TRACK 39 AUDIO
    TITLE "DISC2Track21_39"
    INDEX 01 01:41:10
  TRACK 40 AUDIO
    TITLE "DISC2Track21_40"
    INDEX 01 01:44:47
  TRACK 41 AUDIO
    TITLE "DISC2Track21_41"
    INDEX 01 01:48:43
  TRACK 42 AUDIO
    TITLE "DISC2Track21_42"
    INDEX 01 01:52:31
